<mxfile host="app.diagrams.net" modified="2021-02-02T15:40:24.198Z" agent="5.0 (Windows NT 10.0; Win64; x64) AppleWebKit/537.36 (KHTML, like Gecko) Chrome/88.0.4324.104 Safari/537.36" etag="c8AXGEUDRkaDbqs7C1Ln" version="14.2.9" type="github">
  <diagram id="R2lEEEUBdFMjLlhIrx00" name="Page-1">
    <mxGraphModel dx="3490" dy="889" grid="1" gridSize="10" guides="1" tooltips="1" connect="1" arrows="1" fold="1" page="1" pageScale="1" pageWidth="850" pageHeight="1100" math="0" shadow="0" extFonts="Permanent Marker^https://fonts.googleapis.com/css?family=Permanent+Marker">
      <root>
        <mxCell id="0" />
        <mxCell id="1" parent="0" />
        <mxCell id="x9NvxZj61J1J9ld-LQLX-63" value="Review" style="shape=ext;margin=3;double=1;whiteSpace=wrap;html=1;align=center;" parent="1" vertex="1">
          <mxGeometry x="-56" y="120" width="100" height="40" as="geometry" />
        </mxCell>
        <mxCell id="v3UMW6L6XcEvRnhdQh_5-21" value="Conventional Car" style="whiteSpace=wrap;html=1;align=center;" parent="1" vertex="1">
          <mxGeometry x="320" y="640" width="85" height="30" as="geometry" />
        </mxCell>
        <mxCell id="v3UMW6L6XcEvRnhdQh_5-23" value="MPG" style="ellipse;whiteSpace=wrap;html=1;align=center;" parent="1" vertex="1">
          <mxGeometry x="80" y="650" width="100" height="40" as="geometry" />
        </mxCell>
        <mxCell id="v3UMW6L6XcEvRnhdQh_5-30" value="" style="endArrow=none;html=1;entryX=0.5;entryY=1;entryDx=0;entryDy=0;exitX=0.5;exitY=0;exitDx=0;exitDy=0;" parent="1" source="v3UMW6L6XcEvRnhdQh_5-23" edge="1">
          <mxGeometry width="50" height="50" relative="1" as="geometry">
            <mxPoint x="319.5" y="660" as="sourcePoint" />
            <mxPoint x="187.5" y="620" as="targetPoint" />
          </mxGeometry>
        </mxCell>
        <mxCell id="v3UMW6L6XcEvRnhdQh_5-32" value="" style="endArrow=none;html=1;rounded=0;exitX=1;exitY=0.75;exitDx=0;exitDy=0;entryX=1;entryY=1;entryDx=0;entryDy=0;" parent="1" source="tE1Tz7KGst0yB31uhPFn-10" target="v3UMW6L6XcEvRnhdQh_5-40" edge="1">
          <mxGeometry relative="1" as="geometry">
            <mxPoint x="137.5" y="280" as="sourcePoint" />
            <mxPoint x="60" y="240" as="targetPoint" />
          </mxGeometry>
        </mxCell>
        <mxCell id="v3UMW6L6XcEvRnhdQh_5-33" value="" style="endArrow=none;html=1;rounded=0;exitX=1;exitY=0.75;exitDx=0;exitDy=0;entryX=0.038;entryY=0.827;entryDx=0;entryDy=0;entryPerimeter=0;" parent="1" source="tE1Tz7KGst0yB31uhPFn-10" target="v3UMW6L6XcEvRnhdQh_5-43" edge="1">
          <mxGeometry relative="1" as="geometry">
            <mxPoint x="212.8499999999999" y="278.98" as="sourcePoint" />
            <mxPoint x="280" y="240" as="targetPoint" />
          </mxGeometry>
        </mxCell>
        <mxCell id="v3UMW6L6XcEvRnhdQh_5-34" value="" style="endArrow=none;html=1;rounded=0;entryX=0.085;entryY=0.907;entryDx=0;entryDy=0;entryPerimeter=0;" parent="1" target="v3UMW6L6XcEvRnhdQh_5-44" edge="1">
          <mxGeometry relative="1" as="geometry">
            <mxPoint x="217" y="310" as="sourcePoint" />
            <mxPoint x="213.31068118740995" y="229.82020388915498" as="targetPoint" />
          </mxGeometry>
        </mxCell>
        <mxCell id="v3UMW6L6XcEvRnhdQh_5-35" value="" style="endArrow=none;html=1;rounded=0;exitX=1;exitY=0.25;exitDx=0;exitDy=0;entryX=0.5;entryY=1;entryDx=0;entryDy=0;" parent="1" source="tE1Tz7KGst0yB31uhPFn-10" target="v3UMW6L6XcEvRnhdQh_5-45" edge="1">
          <mxGeometry relative="1" as="geometry">
            <mxPoint x="165" y="280" as="sourcePoint" />
            <mxPoint x="120" y="230" as="targetPoint" />
          </mxGeometry>
        </mxCell>
        <mxCell id="v3UMW6L6XcEvRnhdQh_5-40" value="productId" style="ellipse;whiteSpace=wrap;html=1;align=center;fontStyle=4;" parent="1" vertex="1">
          <mxGeometry x="340" y="290" width="100" height="40" as="geometry" />
        </mxCell>
        <mxCell id="v3UMW6L6XcEvRnhdQh_5-43" value="producttype" style="ellipse;whiteSpace=wrap;html=1;align=center;" parent="1" vertex="1">
          <mxGeometry x="325" y="240" width="100" height="40" as="geometry" />
        </mxCell>
        <mxCell id="v3UMW6L6XcEvRnhdQh_5-44" value="qonhand" style="ellipse;whiteSpace=wrap;html=1;align=center;" parent="1" vertex="1">
          <mxGeometry x="305" y="200" width="100" height="40" as="geometry" />
        </mxCell>
        <mxCell id="v3UMW6L6XcEvRnhdQh_5-45" value="msrp" style="ellipse;whiteSpace=wrap;html=1;align=center;" parent="1" vertex="1">
          <mxGeometry x="260" y="160" width="100" height="40" as="geometry" />
        </mxCell>
        <mxCell id="v3UMW6L6XcEvRnhdQh_5-46" value="Em Test Date" style="ellipse;whiteSpace=wrap;html=1;align=center;" parent="1" vertex="1">
          <mxGeometry x="190" y="650" width="100" height="40" as="geometry" />
        </mxCell>
        <mxCell id="v3UMW6L6XcEvRnhdQh_5-47" value="" style="endArrow=none;html=1;entryX=0.5;entryY=1;entryDx=0;entryDy=0;exitX=0.5;exitY=0;exitDx=0;exitDy=0;" parent="1" source="v3UMW6L6XcEvRnhdQh_5-46" edge="1">
          <mxGeometry width="50" height="50" relative="1" as="geometry">
            <mxPoint x="115" y="660" as="sourcePoint" />
            <mxPoint x="187.5" y="620" as="targetPoint" />
          </mxGeometry>
        </mxCell>
        <mxCell id="v3UMW6L6XcEvRnhdQh_5-48" value="" style="endArrow=none;html=1;rounded=0;entryX=1;entryY=1;entryDx=0;entryDy=0;exitX=1;exitY=1;exitDx=0;exitDy=0;" parent="1" source="tE1Tz7KGst0yB31uhPFn-10" target="v3UMW6L6XcEvRnhdQh_5-50" edge="1">
          <mxGeometry relative="1" as="geometry">
            <mxPoint x="110" y="280" as="sourcePoint" />
            <mxPoint x="20" y="280" as="targetPoint" />
          </mxGeometry>
        </mxCell>
        <mxCell id="v3UMW6L6XcEvRnhdQh_5-50" value="name" style="ellipse;whiteSpace=wrap;html=1;align=center;" parent="1" vertex="1">
          <mxGeometry x="312.5" y="340" width="100" height="40" as="geometry" />
        </mxCell>
        <mxCell id="v3UMW6L6XcEvRnhdQh_5-52" value="Customer" style="whiteSpace=wrap;html=1;align=center;" parent="1" vertex="1">
          <mxGeometry x="-260" y="290" width="97" height="40" as="geometry" />
        </mxCell>
        <mxCell id="v3UMW6L6XcEvRnhdQh_5-54" value="" style="edgeStyle=entityRelationEdgeStyle;fontSize=12;html=1;endArrow=ERoneToMany;startArrow=ERmandOne;exitX=0;exitY=0.5;exitDx=0;exitDy=0;entryX=1;entryY=0.5;entryDx=0;entryDy=0;" parent="1" source="tE1Tz7KGst0yB31uhPFn-10" edge="1">
          <mxGeometry width="100" height="100" relative="1" as="geometry">
            <mxPoint x="300" y="310" as="sourcePoint" />
            <mxPoint x="207.5" y="310" as="targetPoint" />
          </mxGeometry>
        </mxCell>
        <mxCell id="v3UMW6L6XcEvRnhdQh_5-63" value="" style="endArrow=none;html=1;rounded=0;entryX=1;entryY=1;entryDx=0;entryDy=0;" parent="1" target="v3UMW6L6XcEvRnhdQh_5-65" edge="1">
          <mxGeometry relative="1" as="geometry">
            <mxPoint x="-260" y="289" as="sourcePoint" />
            <mxPoint x="-310" y="240" as="targetPoint" />
          </mxGeometry>
        </mxCell>
        <mxCell id="v3UMW6L6XcEvRnhdQh_5-64" value="" style="endArrow=none;html=1;rounded=0;entryX=0.5;entryY=1;entryDx=0;entryDy=0;" parent="1" target="v3UMW6L6XcEvRnhdQh_5-66" edge="1">
          <mxGeometry relative="1" as="geometry">
            <mxPoint x="-240" y="289" as="sourcePoint" />
            <mxPoint x="-250" y="230" as="targetPoint" />
          </mxGeometry>
        </mxCell>
        <mxCell id="v3UMW6L6XcEvRnhdQh_5-65" value="emailAddress" style="ellipse;whiteSpace=wrap;html=1;align=center;fontStyle=4;" parent="1" vertex="1">
          <mxGeometry x="-420" y="190" width="100" height="40" as="geometry" />
        </mxCell>
        <mxCell id="v3UMW6L6XcEvRnhdQh_5-66" value="FName" style="ellipse;whiteSpace=wrap;html=1;align=center;" parent="1" vertex="1">
          <mxGeometry x="-390" y="150" width="100" height="40" as="geometry" />
        </mxCell>
        <mxCell id="v3UMW6L6XcEvRnhdQh_5-67" value="" style="endArrow=none;html=1;rounded=0;entryX=1;entryY=1;entryDx=0;entryDy=0;" parent="1" target="v3UMW6L6XcEvRnhdQh_5-68" edge="1">
          <mxGeometry relative="1" as="geometry">
            <mxPoint x="-260" y="290" as="sourcePoint" />
            <mxPoint x="-350" y="280" as="targetPoint" />
          </mxGeometry>
        </mxCell>
        <mxCell id="v3UMW6L6XcEvRnhdQh_5-68" value="Street" style="ellipse;whiteSpace=wrap;html=1;align=center;" parent="1" vertex="1">
          <mxGeometry x="-420" y="240" width="100" height="40" as="geometry" />
        </mxCell>
        <mxCell id="v3UMW6L6XcEvRnhdQh_5-71" value="" style="endArrow=none;html=1;rounded=0;exitX=0.25;exitY=0;exitDx=0;exitDy=0;entryX=0.5;entryY=1;entryDx=0;entryDy=0;" parent="1" source="v3UMW6L6XcEvRnhdQh_5-52" target="v3UMW6L6XcEvRnhdQh_5-72" edge="1">
          <mxGeometry relative="1" as="geometry">
            <mxPoint x="-110.8119999999999" y="290" as="sourcePoint" />
            <mxPoint x="-150" y="230.6" as="targetPoint" />
          </mxGeometry>
        </mxCell>
        <mxCell id="v3UMW6L6XcEvRnhdQh_5-72" value="LName" style="ellipse;whiteSpace=wrap;html=1;align=center;" parent="1" vertex="1">
          <mxGeometry x="-300" y="170" width="100" height="40" as="geometry" />
        </mxCell>
        <mxCell id="v3UMW6L6XcEvRnhdQh_5-76" value="Fare" style="whiteSpace=wrap;html=1;align=center;" parent="1" vertex="1">
          <mxGeometry x="-84" y="660" width="100" height="40" as="geometry" />
        </mxCell>
        <mxCell id="v3UMW6L6XcEvRnhdQh_5-93" value="Date/Time Start" style="ellipse;whiteSpace=wrap;html=1;align=center;" parent="1" vertex="1">
          <mxGeometry x="-136" y="760" width="100" height="40" as="geometry" />
        </mxCell>
        <mxCell id="v3UMW6L6XcEvRnhdQh_5-94" value="Date/Time Stop" style="ellipse;whiteSpace=wrap;html=1;align=center;" parent="1" vertex="1">
          <mxGeometry x="-74" y="800" width="100" height="40" as="geometry" />
        </mxCell>
        <mxCell id="v3UMW6L6XcEvRnhdQh_5-95" value="LName" style="ellipse;whiteSpace=wrap;html=1;align=center;" parent="1" vertex="1">
          <mxGeometry x="-515" y="430" width="100" height="40" as="geometry" />
        </mxCell>
        <mxCell id="v3UMW6L6XcEvRnhdQh_5-108" value="FavoriteProducts" style="whiteSpace=wrap;html=1;align=center;" parent="1" vertex="1">
          <mxGeometry x="-330" y="510" width="97" height="40" as="geometry" />
        </mxCell>
        <mxCell id="v3UMW6L6XcEvRnhdQh_5-116" value="FName" style="ellipse;whiteSpace=wrap;html=1;align=center;" parent="1" vertex="1">
          <mxGeometry x="-480" y="590" width="100" height="40" as="geometry" />
        </mxCell>
        <mxCell id="v3UMW6L6XcEvRnhdQh_5-117" value="Cost" style="ellipse;whiteSpace=wrap;html=1;align=center;" parent="1" vertex="1">
          <mxGeometry x="-26" y="760" width="100" height="40" as="geometry" />
        </mxCell>
        <mxCell id="v3UMW6L6XcEvRnhdQh_5-120" value="&lt;u&gt;favoriteID&lt;/u&gt;" style="ellipse;whiteSpace=wrap;html=1;align=center;" parent="1" vertex="1">
          <mxGeometry x="-425" y="635" width="100" height="40" as="geometry" />
        </mxCell>
        <mxCell id="v3UMW6L6XcEvRnhdQh_5-123" value="" style="endArrow=none;html=1;rounded=0;strokeColor=#000000;exitX=0;exitY=0.5;exitDx=0;exitDy=0;" parent="1" edge="1" source="v3UMW6L6XcEvRnhdQh_5-108">
          <mxGeometry relative="1" as="geometry">
            <mxPoint x="-475" y="520" as="sourcePoint" />
            <mxPoint x="-375" y="635" as="targetPoint" />
          </mxGeometry>
        </mxCell>
        <mxCell id="v3UMW6L6XcEvRnhdQh_5-125" value="" style="endArrow=none;html=1;rounded=0;strokeColor=#000000;exitX=0.5;exitY=0;exitDx=0;exitDy=0;entryX=0.5;entryY=1;entryDx=0;entryDy=0;" parent="1" source="v3UMW6L6XcEvRnhdQh_5-94" target="v3UMW6L6XcEvRnhdQh_5-76" edge="1">
          <mxGeometry relative="1" as="geometry">
            <mxPoint x="-224" y="620" as="sourcePoint" />
            <mxPoint x="-64" y="620" as="targetPoint" />
          </mxGeometry>
        </mxCell>
        <mxCell id="v3UMW6L6XcEvRnhdQh_5-126" value="" style="endArrow=none;html=1;rounded=0;strokeColor=#000000;exitX=0.628;exitY=0;exitDx=0;exitDy=0;exitPerimeter=0;entryX=0.5;entryY=1;entryDx=0;entryDy=0;" parent="1" source="v3UMW6L6XcEvRnhdQh_5-93" target="v3UMW6L6XcEvRnhdQh_5-76" edge="1">
          <mxGeometry relative="1" as="geometry">
            <mxPoint x="-114" y="730" as="sourcePoint" />
            <mxPoint x="-36" y="710" as="targetPoint" />
          </mxGeometry>
        </mxCell>
        <mxCell id="v3UMW6L6XcEvRnhdQh_5-127" value="" style="endArrow=none;html=1;rounded=0;strokeColor=#000000;entryX=0.5;entryY=0;entryDx=0;entryDy=0;exitX=0.75;exitY=1;exitDx=0;exitDy=0;" parent="1" source="v3UMW6L6XcEvRnhdQh_5-76" target="v3UMW6L6XcEvRnhdQh_5-117" edge="1">
          <mxGeometry relative="1" as="geometry">
            <mxPoint x="-224" y="620" as="sourcePoint" />
            <mxPoint x="-64" y="620" as="targetPoint" />
          </mxGeometry>
        </mxCell>
        <mxCell id="v3UMW6L6XcEvRnhdQh_5-129" value="Trip Time" style="ellipse;whiteSpace=wrap;html=1;align=center;dashed=1;" parent="1" vertex="1">
          <mxGeometry x="-246" y="760" width="100" height="40" as="geometry" />
        </mxCell>
        <mxCell id="v3UMW6L6XcEvRnhdQh_5-131" value="" style="endArrow=none;html=1;rounded=0;strokeColor=#000000;entryX=0.25;entryY=1;entryDx=0;entryDy=0;exitX=1;exitY=0.5;exitDx=0;exitDy=0;" parent="1" source="v3UMW6L6XcEvRnhdQh_5-129" target="v3UMW6L6XcEvRnhdQh_5-76" edge="1">
          <mxGeometry relative="1" as="geometry">
            <mxPoint x="-394" y="700" as="sourcePoint" />
            <mxPoint x="-234" y="700" as="targetPoint" />
          </mxGeometry>
        </mxCell>
        <mxCell id="6PIn2MYNK5KoDBoRQHLl-4" value="" style="endArrow=none;html=1;" parent="1" edge="1">
          <mxGeometry width="50" height="50" relative="1" as="geometry">
            <mxPoint x="172" y="390" as="sourcePoint" />
            <mxPoint x="172" y="330" as="targetPoint" />
          </mxGeometry>
        </mxCell>
        <mxCell id="v3UMW6L6XcEvRnhdQh_5-17" value="d" style="ellipse;whiteSpace=wrap;html=1;aspect=fixed;" parent="1" vertex="1">
          <mxGeometry x="153.5" y="370" width="40" height="40" as="geometry" />
        </mxCell>
        <mxCell id="6PIn2MYNK5KoDBoRQHLl-12" value="Electric Car" style="whiteSpace=wrap;html=1;align=center;" parent="1" vertex="1">
          <mxGeometry x="476.5" y="630" width="85" height="30" as="geometry" />
        </mxCell>
        <mxCell id="6PIn2MYNK5KoDBoRQHLl-15" value="Tax Subsidy" style="ellipse;whiteSpace=wrap;html=1;align=center;" parent="1" vertex="1">
          <mxGeometry x="469" y="700" width="100" height="40" as="geometry" />
        </mxCell>
        <mxCell id="6PIn2MYNK5KoDBoRQHLl-16" value="" style="endArrow=none;html=1;entryX=0.5;entryY=1;entryDx=0;entryDy=0;exitX=0.5;exitY=0;exitDx=0;exitDy=0;" parent="1" source="6PIn2MYNK5KoDBoRQHLl-15" target="6PIn2MYNK5KoDBoRQHLl-12" edge="1">
          <mxGeometry width="50" height="50" relative="1" as="geometry">
            <mxPoint x="446.5" y="720" as="sourcePoint" />
            <mxPoint x="529" y="690" as="targetPoint" />
          </mxGeometry>
        </mxCell>
        <mxCell id="6PIn2MYNK5KoDBoRQHLl-21" value="&lt;u&gt;ID&lt;/u&gt;" style="ellipse;whiteSpace=wrap;html=1;align=center;" parent="1" vertex="1">
          <mxGeometry x="-249" y="720" width="100" height="40" as="geometry" />
        </mxCell>
        <mxCell id="6PIn2MYNK5KoDBoRQHLl-22" value="" style="endArrow=none;html=1;rounded=0;strokeColor=#000000;exitX=0;exitY=1;exitDx=0;exitDy=0;entryX=1;entryY=0.5;entryDx=0;entryDy=0;" parent="1" source="v3UMW6L6XcEvRnhdQh_5-76" target="6PIn2MYNK5KoDBoRQHLl-21" edge="1">
          <mxGeometry relative="1" as="geometry">
            <mxPoint x="-24" y="730" as="sourcePoint" />
            <mxPoint x="-34" y="650" as="targetPoint" />
          </mxGeometry>
        </mxCell>
        <mxCell id="6PIn2MYNK5KoDBoRQHLl-24" value="(FK) DL#" style="ellipse;whiteSpace=wrap;html=1;align=center;" parent="1" vertex="1">
          <mxGeometry x="74" y="740" width="100" height="40" as="geometry" />
        </mxCell>
        <mxCell id="6PIn2MYNK5KoDBoRQHLl-25" value="" style="endArrow=none;html=1;rounded=0;strokeColor=#000000;entryX=0;entryY=1;entryDx=0;entryDy=0;" parent="1" source="v3UMW6L6XcEvRnhdQh_5-76" target="6PIn2MYNK5KoDBoRQHLl-24" edge="1">
          <mxGeometry relative="1" as="geometry">
            <mxPoint x="-24" y="670" as="sourcePoint" />
            <mxPoint x="-24" y="650" as="targetPoint" />
          </mxGeometry>
        </mxCell>
        <mxCell id="tE1Tz7KGst0yB31uhPFn-6" value="Order" style="shape=associativeEntity;whiteSpace=wrap;html=1;align=center;" parent="1" vertex="1">
          <mxGeometry x="-70" y="280" width="110" height="60" as="geometry" />
        </mxCell>
        <mxCell id="tE1Tz7KGst0yB31uhPFn-10" value="Product" style="whiteSpace=wrap;html=1;align=center;" parent="1" vertex="1">
          <mxGeometry x="120" y="290" width="97" height="40" as="geometry" />
        </mxCell>
        <mxCell id="v3UMW6L6XcEvRnhdQh_5-77" value="Is a" style="shape=rhombus;perimeter=rhombusPerimeter;whiteSpace=wrap;html=1;align=center;" parent="1" vertex="1">
          <mxGeometry x="-84" y="610" width="120" height="60" as="geometry" />
        </mxCell>
        <mxCell id="QLD6Ur6bGYuq00FG4TX2-11" value="" style="endArrow=none;html=1;rounded=0;strokeColor=#000000;exitX=0.5;exitY=1;exitDx=0;exitDy=0;" parent="1" source="v3UMW6L6XcEvRnhdQh_5-95" edge="1">
          <mxGeometry relative="1" as="geometry">
            <mxPoint x="-560" y="480" as="sourcePoint" />
            <mxPoint x="-470" y="520" as="targetPoint" />
          </mxGeometry>
        </mxCell>
        <mxCell id="QLD6Ur6bGYuq00FG4TX2-13" value="" style="endArrow=classic;html=1;entryX=1;entryY=0;entryDx=0;entryDy=0;exitX=0.712;exitY=1.101;exitDx=0;exitDy=0;exitPerimeter=0;" parent="1" target="6PIn2MYNK5KoDBoRQHLl-21" edge="1">
          <mxGeometry width="50" height="50" relative="1" as="geometry">
            <mxPoint x="-167.84000000000015" y="620.05" as="sourcePoint" />
            <mxPoint x="54" y="620" as="targetPoint" />
          </mxGeometry>
        </mxCell>
        <mxCell id="x9NvxZj61J1J9ld-LQLX-3" value="" style="edgeStyle=entityRelationEdgeStyle;fontSize=12;html=1;endArrow=ERoneToMany;startArrow=ERmandOne;exitX=0;exitY=0.5;exitDx=0;exitDy=0;entryX=1;entryY=0.5;entryDx=0;entryDy=0;" parent="1" edge="1">
          <mxGeometry width="100" height="100" relative="1" as="geometry">
            <mxPoint x="-305" y="80" as="sourcePoint" />
            <mxPoint x="-528" y="80" as="targetPoint" />
          </mxGeometry>
        </mxCell>
        <mxCell id="x9NvxZj61J1J9ld-LQLX-4" value="" style="edgeStyle=entityRelationEdgeStyle;fontSize=12;html=1;endArrow=ERoneToMany;startArrow=ERmandOne;exitX=1;exitY=0.5;exitDx=0;exitDy=0;" parent="1" edge="1">
          <mxGeometry width="100" height="100" relative="1" as="geometry">
            <mxPoint x="-508" y="160" as="sourcePoint" />
            <mxPoint x="-425" y="130" as="targetPoint" />
          </mxGeometry>
        </mxCell>
        <mxCell id="x9NvxZj61J1J9ld-LQLX-5" value="" style="edgeStyle=entityRelationEdgeStyle;fontSize=12;html=1;endArrow=ERoneToMany;startArrow=ERmandOne;exitX=0;exitY=0.5;exitDx=0;exitDy=0;entryX=1;entryY=0.5;entryDx=0;entryDy=0;" parent="1" edge="1">
          <mxGeometry width="100" height="100" relative="1" as="geometry">
            <mxPoint x="-108.5" y="60" as="sourcePoint" />
            <mxPoint x="-331.5" y="60" as="targetPoint" />
          </mxGeometry>
        </mxCell>
        <mxCell id="x9NvxZj61J1J9ld-LQLX-6" value="" style="edgeStyle=entityRelationEdgeStyle;fontSize=12;html=1;endArrow=ERoneToMany;startArrow=ERmandOne;exitX=0;exitY=0.5;exitDx=0;exitDy=0;entryX=1;entryY=0.5;entryDx=0;entryDy=0;" parent="1" edge="1">
          <mxGeometry width="100" height="100" relative="1" as="geometry">
            <mxPoint x="-532" y="120" as="sourcePoint" />
            <mxPoint x="-612" y="120" as="targetPoint" />
          </mxGeometry>
        </mxCell>
        <mxCell id="x9NvxZj61J1J9ld-LQLX-7" value="" style="edgeStyle=entityRelationEdgeStyle;fontSize=12;html=1;endArrow=ERmandOne;startArrow=ERmandOne;entryX=0.5;entryY=1;entryDx=0;entryDy=0;exitX=0.5;exitY=0;exitDx=0;exitDy=0;" parent="1" edge="1">
          <mxGeometry width="100" height="100" relative="1" as="geometry">
            <mxPoint x="-700" y="330" as="sourcePoint" />
            <mxPoint x="-667" y="150" as="targetPoint" />
          </mxGeometry>
        </mxCell>
        <mxCell id="x9NvxZj61J1J9ld-LQLX-8" value="" style="edgeStyle=entityRelationEdgeStyle;fontSize=12;html=1;endArrow=ERzeroToMany;endFill=1;exitX=0.5;exitY=1;exitDx=0;exitDy=0;" parent="1" edge="1">
          <mxGeometry width="100" height="100" relative="1" as="geometry">
            <mxPoint x="-822" y="160" as="sourcePoint" />
            <mxPoint x="-833" y="280" as="targetPoint" />
          </mxGeometry>
        </mxCell>
        <mxCell id="x9NvxZj61J1J9ld-LQLX-9" value="" style="edgeStyle=entityRelationEdgeStyle;fontSize=12;html=1;endArrow=ERmandOne;bendable=0;entryX=1;entryY=0.75;entryDx=0;entryDy=0;" parent="1" edge="1">
          <mxGeometry width="100" height="100" relative="1" as="geometry">
            <mxPoint x="-762" y="130" as="sourcePoint" />
            <mxPoint x="-785" y="310" as="targetPoint" />
          </mxGeometry>
        </mxCell>
        <mxCell id="x9NvxZj61J1J9ld-LQLX-10" value="" style="edgeStyle=entityRelationEdgeStyle;fontSize=12;html=1;endArrow=ERoneToMany;startArrow=ERmandOne;strokeColor=#000000;exitX=1;exitY=0.5;exitDx=0;exitDy=0;" parent="1" edge="1">
          <mxGeometry width="100" height="100" relative="1" as="geometry">
            <mxPoint x="-300" y="1040" as="sourcePoint" />
            <mxPoint x="18" y="1040" as="targetPoint" />
          </mxGeometry>
        </mxCell>
        <mxCell id="x9NvxZj61J1J9ld-LQLX-11" value="" style="endArrow=none;html=1;" parent="1" edge="1">
          <mxGeometry width="50" height="50" relative="1" as="geometry">
            <mxPoint x="294" y="890" as="sourcePoint" />
            <mxPoint x="294" y="830" as="targetPoint" />
          </mxGeometry>
        </mxCell>
        <mxCell id="x9NvxZj61J1J9ld-LQLX-12" value="" style="endArrow=none;html=1;" parent="1" edge="1">
          <mxGeometry width="50" height="50" relative="1" as="geometry">
            <mxPoint x="294" y="950" as="sourcePoint" />
            <mxPoint x="294" y="890" as="targetPoint" />
          </mxGeometry>
        </mxCell>
        <mxCell id="x9NvxZj61J1J9ld-LQLX-13" value="" style="endArrow=none;html=1;entryX=0.5;entryY=0;entryDx=0;entryDy=0;" parent="1" edge="1">
          <mxGeometry width="50" height="50" relative="1" as="geometry">
            <mxPoint x="308" y="904" as="sourcePoint" />
            <mxPoint x="448" y="940" as="targetPoint" />
          </mxGeometry>
        </mxCell>
        <mxCell id="x9NvxZj61J1J9ld-LQLX-14" value="City" style="ellipse;whiteSpace=wrap;html=1;align=center;" parent="1" vertex="1">
          <mxGeometry x="-425" y="280" width="100" height="40" as="geometry" />
        </mxCell>
        <mxCell id="x9NvxZj61J1J9ld-LQLX-15" value="State" style="ellipse;whiteSpace=wrap;html=1;align=center;" parent="1" vertex="1">
          <mxGeometry x="-415" y="320" width="100" height="40" as="geometry" />
        </mxCell>
        <mxCell id="x9NvxZj61J1J9ld-LQLX-25" value="" style="endArrow=none;html=1;rounded=0;exitX=0;exitY=0;exitDx=0;exitDy=0;entryX=1;entryY=0.5;entryDx=0;entryDy=0;" parent="1" source="v3UMW6L6XcEvRnhdQh_5-52" target="x9NvxZj61J1J9ld-LQLX-15" edge="1">
          <mxGeometry relative="1" as="geometry">
            <mxPoint x="-240" y="300" as="sourcePoint" />
            <mxPoint x="-279.64466094067257" y="224.14213562373106" as="targetPoint" />
          </mxGeometry>
        </mxCell>
        <mxCell id="x9NvxZj61J1J9ld-LQLX-26" value="" style="endArrow=none;html=1;rounded=0;exitX=0;exitY=0;exitDx=0;exitDy=0;entryX=1;entryY=0.5;entryDx=0;entryDy=0;" parent="1" source="v3UMW6L6XcEvRnhdQh_5-52" target="x9NvxZj61J1J9ld-LQLX-14" edge="1">
          <mxGeometry relative="1" as="geometry">
            <mxPoint x="-230" y="310" as="sourcePoint" />
            <mxPoint x="-269.64466094067257" y="234.14213562373106" as="targetPoint" />
          </mxGeometry>
        </mxCell>
        <mxCell id="x9NvxZj61J1J9ld-LQLX-29" value="Country" style="ellipse;whiteSpace=wrap;html=1;align=center;" parent="1" vertex="1">
          <mxGeometry x="-410" y="360" width="100" height="40" as="geometry" />
        </mxCell>
        <mxCell id="x9NvxZj61J1J9ld-LQLX-30" value="" style="endArrow=none;html=1;rounded=0;entryX=1;entryY=0.5;entryDx=0;entryDy=0;exitX=0;exitY=1;exitDx=0;exitDy=0;" parent="1" source="v3UMW6L6XcEvRnhdQh_5-52" target="x9NvxZj61J1J9ld-LQLX-29" edge="1">
          <mxGeometry relative="1" as="geometry">
            <mxPoint x="-260" y="340" as="sourcePoint" />
            <mxPoint x="-282.64466094067257" y="264.14213562373106" as="targetPoint" />
          </mxGeometry>
        </mxCell>
        <mxCell id="x9NvxZj61J1J9ld-LQLX-45" value="orderDate" style="ellipse;whiteSpace=wrap;html=1;align=center;" parent="1" vertex="1">
          <mxGeometry x="-198" y="385" width="100" height="40" as="geometry" />
        </mxCell>
        <mxCell id="x9NvxZj61J1J9ld-LQLX-46" value="shipDate" style="ellipse;whiteSpace=wrap;html=1;align=center;" parent="1" vertex="1">
          <mxGeometry x="-136" y="425" width="100" height="40" as="geometry" />
        </mxCell>
        <mxCell id="x9NvxZj61J1J9ld-LQLX-47" value="" style="endArrow=none;html=1;rounded=0;strokeColor=#000000;exitX=0.628;exitY=0;exitDx=0;exitDy=0;exitPerimeter=0;entryX=0.5;entryY=1;entryDx=0;entryDy=0;" parent="1" source="x9NvxZj61J1J9ld-LQLX-45" edge="1">
          <mxGeometry relative="1" as="geometry">
            <mxPoint x="-108" y="370" as="sourcePoint" />
            <mxPoint x="-28" y="340" as="targetPoint" />
          </mxGeometry>
        </mxCell>
        <mxCell id="x9NvxZj61J1J9ld-LQLX-48" value="" style="endArrow=none;html=1;rounded=0;strokeColor=#000000;entryX=0.5;entryY=0;entryDx=0;entryDy=0;exitX=0.5;exitY=1;exitDx=0;exitDy=0;" parent="1" source="tE1Tz7KGst0yB31uhPFn-6" target="x9NvxZj61J1J9ld-LQLX-46" edge="1">
          <mxGeometry relative="1" as="geometry">
            <mxPoint x="-3" y="340" as="sourcePoint" />
            <mxPoint x="-58" y="260" as="targetPoint" />
          </mxGeometry>
        </mxCell>
        <mxCell id="x9NvxZj61J1J9ld-LQLX-50" value="&lt;u&gt;trackingNum&lt;/u&gt;" style="ellipse;whiteSpace=wrap;html=1;align=center;" parent="1" vertex="1">
          <mxGeometry x="36" y="400" width="100" height="40" as="geometry" />
        </mxCell>
        <mxCell id="x9NvxZj61J1J9ld-LQLX-51" value="" style="endArrow=none;html=1;rounded=0;strokeColor=#000000;entryX=0.405;entryY=0.042;entryDx=0;entryDy=0;exitX=0.5;exitY=1;exitDx=0;exitDy=0;entryPerimeter=0;" parent="1" source="tE1Tz7KGst0yB31uhPFn-6" target="x9NvxZj61J1J9ld-LQLX-50" edge="1">
          <mxGeometry relative="1" as="geometry">
            <mxPoint x="-5" y="350" as="sourcePoint" />
            <mxPoint x="-28" y="395" as="targetPoint" />
          </mxGeometry>
        </mxCell>
        <mxCell id="x9NvxZj61J1J9ld-LQLX-53" value="" style="edgeStyle=entityRelationEdgeStyle;fontSize=12;html=1;endArrow=ERzeroToMany;startArrow=ERmandOne;exitX=1;exitY=0.5;exitDx=0;exitDy=0;entryX=0;entryY=0.5;entryDx=0;entryDy=0;" parent="1" source="v3UMW6L6XcEvRnhdQh_5-52" target="tE1Tz7KGst0yB31uhPFn-6" edge="1">
          <mxGeometry width="100" height="100" relative="1" as="geometry">
            <mxPoint x="180" y="440" as="sourcePoint" />
            <mxPoint x="280" y="340" as="targetPoint" />
          </mxGeometry>
        </mxCell>
        <mxCell id="x9NvxZj61J1J9ld-LQLX-54" value="pricePaid" style="ellipse;whiteSpace=wrap;html=1;align=center;" parent="1" vertex="1">
          <mxGeometry x="-36" y="425" width="100" height="40" as="geometry" />
        </mxCell>
        <mxCell id="x9NvxZj61J1J9ld-LQLX-55" value="" style="endArrow=none;html=1;rounded=0;strokeColor=#000000;entryX=0.5;entryY=0;entryDx=0;entryDy=0;" parent="1" target="x9NvxZj61J1J9ld-LQLX-54" edge="1">
          <mxGeometry relative="1" as="geometry">
            <mxPoint x="-20" y="340" as="sourcePoint" />
            <mxPoint x="-76" y="435" as="targetPoint" />
          </mxGeometry>
        </mxCell>
        <mxCell id="x9NvxZj61J1J9ld-LQLX-57" value="reviewDate" style="ellipse;whiteSpace=wrap;html=1;align=center;" parent="1" vertex="1">
          <mxGeometry x="-174" y="90" width="100" height="40" as="geometry" />
        </mxCell>
        <mxCell id="x9NvxZj61J1J9ld-LQLX-58" value="text" style="ellipse;whiteSpace=wrap;html=1;align=center;" parent="1" vertex="1">
          <mxGeometry x="26" y="30" width="100" height="40" as="geometry" />
        </mxCell>
        <mxCell id="x9NvxZj61J1J9ld-LQLX-59" value="numStarts" style="ellipse;whiteSpace=wrap;html=1;align=center;" parent="1" vertex="1">
          <mxGeometry x="-74" y="30" width="100" height="40" as="geometry" />
        </mxCell>
        <mxCell id="x9NvxZj61J1J9ld-LQLX-61" value="" style="edgeStyle=entityRelationEdgeStyle;fontSize=12;html=1;endArrow=ERmandOne;startArrow=ERmandOne;entryX=0.5;entryY=1;entryDx=0;entryDy=0;exitX=0.5;exitY=0;exitDx=0;exitDy=0;" parent="1" source="tE1Tz7KGst0yB31uhPFn-6" target="x9NvxZj61J1J9ld-LQLX-63" edge="1">
          <mxGeometry width="100" height="100" relative="1" as="geometry">
            <mxPoint x="180" y="440" as="sourcePoint" />
            <mxPoint x="-35.5" y="170" as="targetPoint" />
          </mxGeometry>
        </mxCell>
        <mxCell id="x9NvxZj61J1J9ld-LQLX-60" value="Has A" style="shape=rhombus;double=1;perimeter=rhombusPerimeter;whiteSpace=wrap;html=1;align=center;" parent="1" vertex="1">
          <mxGeometry x="-56" y="190" width="120" height="60" as="geometry" />
        </mxCell>
        <mxCell id="x9NvxZj61J1J9ld-LQLX-64" value="" style="endArrow=none;html=1;rounded=0;exitX=0.5;exitY=0;exitDx=0;exitDy=0;entryX=1;entryY=0.5;entryDx=0;entryDy=0;" parent="1" source="x9NvxZj61J1J9ld-LQLX-63" target="x9NvxZj61J1J9ld-LQLX-57" edge="1">
          <mxGeometry relative="1" as="geometry">
            <mxPoint x="-225.75" y="300" as="sourcePoint" />
            <mxPoint x="-240" y="220" as="targetPoint" />
          </mxGeometry>
        </mxCell>
        <mxCell id="x9NvxZj61J1J9ld-LQLX-65" value="" style="endArrow=none;html=1;rounded=0;entryX=0.5;entryY=1;entryDx=0;entryDy=0;" parent="1" target="x9NvxZj61J1J9ld-LQLX-59" edge="1">
          <mxGeometry relative="1" as="geometry">
            <mxPoint x="-10" y="120" as="sourcePoint" />
            <mxPoint x="-64" y="120" as="targetPoint" />
          </mxGeometry>
        </mxCell>
        <mxCell id="x9NvxZj61J1J9ld-LQLX-66" value="" style="endArrow=none;html=1;rounded=0;entryX=0.228;entryY=0.983;entryDx=0;entryDy=0;entryPerimeter=0;" parent="1" target="x9NvxZj61J1J9ld-LQLX-58" edge="1">
          <mxGeometry relative="1" as="geometry">
            <mxPoint x="-10" y="120" as="sourcePoint" />
            <mxPoint x="-10" y="100" as="targetPoint" />
          </mxGeometry>
        </mxCell>
        <mxCell id="x9NvxZj61J1J9ld-LQLX-67" value="" style="edgeStyle=entityRelationEdgeStyle;fontSize=12;html=1;endArrow=ERoneToMany;startArrow=ERzeroToMany;entryX=0;entryY=0.5;entryDx=0;entryDy=0;exitX=1;exitY=0.5;exitDx=0;exitDy=0;" parent="1" source="tE1Tz7KGst0yB31uhPFn-6" target="tE1Tz7KGst0yB31uhPFn-10" edge="1">
          <mxGeometry width="100" height="100" relative="1" as="geometry">
            <mxPoint x="123.5" y="530" as="sourcePoint" />
            <mxPoint x="223.5" y="430" as="targetPoint" />
          </mxGeometry>
        </mxCell>
        <mxCell id="x9NvxZj61J1J9ld-LQLX-70" value="" style="edgeStyle=entityRelationEdgeStyle;fontSize=12;html=1;endArrow=ERzeroToMany;endFill=1;startArrow=ERzeroToMany;exitX=1;exitY=0.5;exitDx=0;exitDy=0;entryX=0.5;entryY=1;entryDx=0;entryDy=0;" parent="1" source="v3UMW6L6XcEvRnhdQh_5-108" target="v3UMW6L6XcEvRnhdQh_5-52" edge="1">
          <mxGeometry width="100" height="100" relative="1" as="geometry">
            <mxPoint x="180" y="440" as="sourcePoint" />
            <mxPoint x="280" y="340" as="targetPoint" />
          </mxGeometry>
        </mxCell>
        <mxCell id="x9NvxZj61J1J9ld-LQLX-69" value="Has" style="shape=rhombus;perimeter=rhombusPerimeter;whiteSpace=wrap;html=1;align=center;" parent="1" vertex="1">
          <mxGeometry x="-300" y="405" width="120" height="60" as="geometry" />
        </mxCell>
        <mxCell id="x9NvxZj61J1J9ld-LQLX-71" value="&lt;u&gt;reviewID&lt;/u&gt;" style="ellipse;whiteSpace=wrap;html=1;align=center;" parent="1" vertex="1">
          <mxGeometry x="53.5" y="70" width="100" height="40" as="geometry" />
        </mxCell>
        <mxCell id="x9NvxZj61J1J9ld-LQLX-72" value="" style="endArrow=none;html=1;rounded=0;entryX=0;entryY=0.5;entryDx=0;entryDy=0;exitX=0.5;exitY=0;exitDx=0;exitDy=0;" parent="1" source="x9NvxZj61J1J9ld-LQLX-63" target="x9NvxZj61J1J9ld-LQLX-71" edge="1">
          <mxGeometry relative="1" as="geometry">
            <mxPoint y="130" as="sourcePoint" />
            <mxPoint x="58.80000000000018" y="79.32000000000005" as="targetPoint" />
          </mxGeometry>
        </mxCell>
      </root>
    </mxGraphModel>
  </diagram>
</mxfile>
